<?xml version="1.0" encoding="utf-8"?>
<!-- Generator: Adobe Illustrator 24.0.0, SVG Export Plug-In . SVG Version: 6.00 Build 0)  -->
<svg version="1.1" id="Capa_1" xmlns="http://www.w3.org/2000/svg" xmlns:xlink="http://www.w3.org/1999/xlink" x="0px" y="0px"
	 viewBox="0 0 28.2 28.2" style="enable-background:new 0 0 28.2 28.2;" xml:space="preserve">
<style type="text/css">
	.st0{fill:#FFFFFF;}
</style>
<g>
	<g>
		<path class="st0" d="M18.1,13.8c-2.2-3.8-2-8.2,0-11.7c-2,0-4,0.5-5.9,1.6c-4,2.3-6.1,6.6-5.8,10.9c0.9,0,1.8,0.4,2.6,1
			c0.7-0.4,1.4-0.6,2.2-0.6c2.1,0,3.9,1.4,4.5,3.4c1.5,0.5,2.5,1.8,2.5,3.4c0,1.7-1.2,3.1-2.7,3.5c2.8,0.6,5.8,0.3,8.5-1.3
			c1.9-1.1,3.3-2.6,4.3-4.3C24.2,19.6,20.2,17.5,18.1,13.8z"/>
		<path class="st0" d="M17.2,21.7c0-1.4-1-2.5-2.4-2.6c-0.2-1.8-1.8-3.2-3.6-3.2c-0.9,0-1.7,0.3-2.3,0.9c-0.6-0.8-1.5-1.3-2.6-1.3
			c-1.6,0-2.9,1.1-3.2,2.6C1.4,18.2,0,19.6,0,21.3c0,1.8,1.5,3.3,3.3,3.3c0.4,0,0.8-0.1,1.1-0.2C5,25.2,5.9,25.8,7,25.8
			c0.7,0,1.3-0.2,1.8-0.5c0.6,0.6,1.4,0.9,2.3,0.9c1.3,0,2.4-0.8,3-1.9c0.2,0,0.3,0.1,0.5,0.1C16,24.3,17.2,23.1,17.2,21.7z"/>
		<polygon class="st0" points="24.3,15.2 24.8,14.2 25.9,14 25.1,13.2 25.2,12.1 24.3,12.7 23.2,12.2 23.5,13.3 22.7,14.1 
			23.8,14.2 		"/>
		<polygon class="st0" points="1.9,12.5 2.7,12 3.5,12.5 3.3,11.6 4,11 3.1,10.8 2.7,10 2.3,10.8 1.4,10.9 2,11.6 		"/>
		<polygon class="st0" points="20,10.5 20.4,11.1 20.7,10.4 21.5,10.3 20.9,9.8 21,9 20.3,9.4 19.6,9 19.8,9.8 19.3,10.4 		"/>
		<polygon class="st0" points="23.7,8.4 23.9,8.8 24.1,8.4 24.6,8.3 24.3,8 24.3,7.5 23.9,7.8 23.5,7.6 23.6,8 23.2,8.4 		"/>
		<polygon class="st0" points="6.8,5.6 7.1,6 7.3,5.6 7.7,5.5 7.4,5.2 7.4,4.7 7,4.9 6.6,4.7 6.7,5.2 6.4,5.5 		"/>
	</g>
</g>
</svg>
