<svg id="Capa_1" enable-background="new 0 0 515.556 515.556" height="512" viewBox="0 0 515.556 515.556" width="512" xmlns="http://www.w3.org/2000/svg"><path d="m348.916 166.64c50.334 50.334 50.334 131.942 0 182.276s-131.942 50.334-182.276 0-50.334-131.942 0-182.276 131.942-50.334 182.276 0"/><path d="m257.778 112.778c17.795 0 32.222-14.428 32.222-32.222v-48.334c0-17.794-14.427-32.222-32.222-32.222s-32.222 14.428-32.222 32.222v48.333c0 17.795 14.427 32.223 32.222 32.223z"/><path d="m257.778 402.778c-17.795 0-32.222 14.428-32.222 32.222v48.333c0 17.795 14.428 32.222 32.222 32.222 17.795 0 32.222-14.428 32.222-32.222v-48.333c0-17.794-14.427-32.222-32.222-32.222z"/><path d="m483.334 225.556h-48.334c-17.795 0-32.222 14.428-32.222 32.222 0 17.795 14.428 32.222 32.222 32.222h48.333c17.795 0 32.222-14.428 32.222-32.222.001-17.795-14.427-32.222-32.221-32.222z"/><path d="m112.778 257.778c0-17.795-14.428-32.222-32.222-32.222h-48.334c-17.794 0-32.222 14.427-32.222 32.222s14.428 32.222 32.222 32.222h48.333c17.795 0 32.223-14.427 32.223-32.222z"/><path d="m383.095 164.683c8.244 0 16.489-3.147 22.782-9.44l34.173-34.173c12.587-12.587 12.587-32.978 0-45.564-12.587-12.587-32.978-12.587-45.564 0l-34.173 34.173c-12.587 12.587-12.587 32.978 0 45.564 6.294 6.293 14.538 9.44 22.782 9.44z"/><path d="m109.678 360.313-34.173 34.173c-12.587 12.587-12.587 32.978 0 45.564 6.293 6.293 14.538 9.44 22.782 9.44s16.489-3.147 22.782-9.44l34.173-34.173c12.587-12.587 12.587-32.978 0-45.564-12.586-12.587-32.977-12.587-45.564 0z"/><path d="m405.877 360.313c-12.587-12.587-32.978-12.587-45.564 0-12.587 12.587-12.587 32.978 0 45.564l34.173 34.173c6.293 6.293 14.538 9.44 22.782 9.44s16.489-3.147 22.782-9.44c12.587-12.587 12.587-32.978 0-45.564.001 0-34.172-34.173-34.173-34.173z"/><path d="m109.678 155.243c6.293 6.293 14.538 9.44 22.782 9.44s16.489-3.147 22.782-9.44c12.587-12.587 12.587-32.978 0-45.564l-34.173-34.173c-12.587-12.587-32.978-12.587-45.564 0-12.587 12.587-12.587 32.978 0 45.564 0-.001 34.173 34.173 34.173 34.173z"/></svg>